<svg xmlns="http://www.w3.org/2000/svg" width="15" height="15" viewBox="0 0 15 15" fill="none">
<path d="M8.98755 12.4277H11.2366V14.9268L12.7375 14.9277L12.7366 14.1768V12.4268H14.9924L14.9915 10.9268H12.7366V9.17773L12.7375 8.42676L11.2366 8.42773V10.9277H8.98657L8.98755 12.4277Z" fill="#0E0E25"/>
<path d="M0 2.33789C4.94294e-05 3.30599 0.588108 4.13794 1.42676 4.49316V8.55957C1.42709 10.6954 3.15902 12.4268 5.29492 12.4268H7.49609V10.9268H5.29492C3.98745 10.9268 2.92709 9.86697 2.92676 8.55957V4.59863C3.93289 4.33744 4.6767 3.42572 4.67676 2.33789C4.67652 1.04667 3.62917 0 2.33789 0C1.04681 0.00023691 0.000236898 1.04681 0 2.33789Z" fill="#0E0E25"/>
</svg>
