<svg width="20" height="21" viewBox="0 0 20 21" fill="none" xmlns="http://www.w3.org/2000/svg">
<path d="M10 0L18.7808 5.22675C19.0037 5.37175 19.1794 5.5625 19.3078 5.799C19.4359 6.0355 19.5 6.28708 19.5 6.55375V17.096C19.5 17.6012 19.325 18.0288 18.975 18.3788C18.625 18.7288 18.1974 18.9038 17.6923 18.9038H2.30775C1.80258 18.9038 1.375 18.7288 1.025 18.3788C0.675 18.0288 0.5 17.6012 0.5 17.096V6.55375C0.5 6.28708 0.564083 6.0355 0.69225 5.799C0.820583 5.5625 0.99625 5.37175 1.21925 5.22675L10 0ZM10 11.0538L17.8 6.40375L10 1.75375L2.2 6.40375L10 11.0538ZM10 12.8075L2 8.02675V17.096C2 17.1858 2.02883 17.2596 2.0865 17.3173C2.14417 17.3749 2.21792 17.4038 2.30775 17.4038H17.6923C17.7821 17.4038 17.8558 17.3749 17.9135 17.3173C17.9712 17.2596 18 17.1858 18 17.096V8.02675L10 12.8075Z" fill="#0E0E25"/>
</svg>
