<svg width="20" height="20" viewBox="0 0 20 20" fill="none" xmlns="http://www.w3.org/2000/svg">
<path d="M16.6924 2.5C17.1975 2.50003 17.6246 2.67542 17.9746 3.02539C18.3246 3.37536 18.5 3.80251 18.5 4.30762V16.6924C18.5 17.1975 18.3246 17.6246 17.9746 17.9746C17.6246 18.3246 17.1975 18.5 16.6924 18.5H2.30762C1.80251 18.5 1.37536 18.3246 1.02539 17.9746C0.675421 17.6246 0.500031 17.1975 0.5 16.6924V4.30762C0.500031 3.80251 0.675421 3.37536 1.02539 3.02539C1.37536 2.67542 1.80251 2.50003 2.30762 2.5H16.6924ZM2.30762 4C2.23067 4.00004 2.16064 4.03255 2.09668 4.09668C2.03255 4.16064 2.00004 4.23067 2 4.30762V16.6924C2.00004 16.7693 2.03255 16.8394 2.09668 16.9033C2.16064 16.9675 2.23067 17 2.30762 17H13.25V4H2.30762ZM14.75 17H16.6924C16.7693 17 16.8394 16.9675 16.9033 16.9033C16.9675 16.8394 17 16.7693 17 16.6924V4.30762C17 4.23067 16.9674 4.16064 16.9033 4.09668C16.8394 4.03255 16.7693 4.00004 16.6924 4H14.75V17ZM10.8271 14.7305H4.28809V13.2305H10.8271V14.7305ZM10.8271 11.8467H4.28809V10.3467H10.8271V11.8467ZM5.5 6C6.32843 6 7 6.67157 7 7.5C7 8.32843 6.32843 9 5.5 9C4.67157 9 4 8.32843 4 7.5C4 6.67157 4.67157 6 5.5 6Z" fill="#0E0E25"/>
</svg>
