<svg width="16" height="16" viewBox="0 0 16 16" fill="none" xmlns="http://www.w3.org/2000/svg">
<path d="M11.25 0C11.6642 0 12 0.335786 12 0.75V2H12.25C13.7688 2 15 3.23122 15 4.75V13.25C15 14.7688 13.7688 16 12.25 16H3.75C2.23122 16 1 14.7688 1 13.25V4.75C1 3.23122 2.23122 2 3.75 2H4V0.75C4 0.335786 4.33579 0 4.75 0C5.16421 0 5.5 0.335786 5.5 0.75V2H10.5V0.75C10.5 0.335786 10.8358 0 11.25 0ZM2.5 7.5V13.25C2.5 13.9404 3.05964 14.5 3.75 14.5H12.25C12.9404 14.5 13.5 13.9404 13.5 13.25V7.5H2.5ZM9.21973 8.71973C9.51262 8.42683 9.98738 8.42683 10.2803 8.71973C10.5732 9.01262 10.5732 9.48738 10.2803 9.78027L9.06055 11L10.2803 12.2197C10.5732 12.5126 10.5732 12.9874 10.2803 13.2803C9.98738 13.5732 9.51262 13.5732 9.21973 13.2803L8 12.0605L6.78027 13.2803C6.48738 13.5732 6.01262 13.5732 5.71973 13.2803C5.42683 12.9874 5.42683 12.5126 5.71973 12.2197L6.93945 11L5.71973 9.78027C5.42683 9.48738 5.42683 9.01262 5.71973 8.71973C6.01262 8.42683 6.48738 8.42683 6.78027 8.71973L8 9.93945L9.21973 8.71973ZM3.75 3.5C3.05964 3.5 2.5 4.05964 2.5 4.75V6H13.5V4.75C13.5 4.05964 12.9404 3.5 12.25 3.5H12V4.25C12 4.66421 11.6642 5 11.25 5C10.8358 5 10.5 4.66421 10.5 4.25V3.5H5.5V4.25C5.5 4.66421 5.16421 5 4.75 5C4.33579 5 4 4.66421 4 4.25V3.5H3.75Z" fill="#131E29"/>
</svg>
